<?xml version="1.0" encoding="UTF-8"?>
<svg id="Capa_1" data-name="Capa 1" xmlns="http://www.w3.org/2000/svg" viewBox="0 0 814.59 776.47">
  <defs>
    <style>
      .cls-1 {
        fill: #0c1043;
      }

      .cls-1, .cls-2, .cls-3 {
        stroke-width: 0px;
      }

      .cls-4 {
        stroke: #7cc6f7;
      }

      .cls-4, .cls-5 {
        fill: none;
        stroke-miterlimit: 10;
        stroke-width: 2px;
      }

      .cls-2 {
        fill: #22a0d9;
      }

      .cls-3 {
        fill: #f7f6f6;
      }

      .cls-5 {
        stroke: #2294f1;
      }
    </style>
  </defs>
  <g>
    <path class="cls-3" d="M212.03,290.43c75.82-22.03,115.48-97.04,119.8-105.5,37.45-73.26-.98-113.32,33.97-151.98,41.25-45.63,136.74-36.28,198.47-3.58,63.51,33.65,107.59,100.65,112.65,166.29,5.18,67.24-34.31,84.75-21.46,146.62,12.12,58.38,51.15,61.38,78.67,125.16,21.32,49.4,35.27,134.17-5.36,193.11-56.65,82.18-199.81,85.71-287.88,42.91-64.16-31.18-56.1-66.06-119.8-91.19-97.47-38.45-152.99,28.74-218.14-10.73-61.25-37.1-84.82-140.48-55.43-214.57,4.17-10.52,22.66-57.12,67.95-80.46,36.48-18.8,53.83-3.68,96.55-16.09Z"/>
    <path class="cls-4" d="M311,82.57C363.03-3.62,629.84.47,727.26,129.5c6.3,8.34,58.8,79.73,33.19,135.89-26.28,57.64-113.48,52.41-118.93,89.4-7.81,53.07,167.3,93.52,163.18,153.77-2.47,36.18-66.5,34.5-150.74,101.03-99.5,78.57-96.03,148.72-158.11,157.35-74.58,10.37-146.14-81.61-156.73-95.66-54.32-72.05-25.18-110.67-70.07-151.09-76.45-68.83-206.53,2.15-247.08-56.77-21.91-31.84-8.84-88.76,21.2-122.03,72.86-80.68,227.84-2.7,277.5-69.73,40.5-54.67-46.01-128.9-9.68-189.09Z"/>
    <path class="cls-5" d="M352.34,73.25c62.77-79.17,326.95-42.63,406.89,97.24,5.17,9.04,48.01,86.26,15.33,138.86-33.54,53.98-119.37,38.18-129.56,74.22-14.62,51.7,153.87,113.15,141.98,172.42-7.14,35.59-70.44,26.13-162.62,81.87-108.88,65.84-114.52,135.85-177.23,136.85-75.33,1.21-134.42-98.76-143.1-113.99-44.56-78.09-10.65-112.86-49.95-158.43-66.93-77.59-205.18-23.01-237.77-86.4-17.62-34.25,2.72-89.14,36.84-118.49,82.73-71.18,226.39,25.06,284.34-35.4,47.26-49.3-28.96-133.48,14.88-188.77Z"/>
  </g>
  <path class="cls-2" d="M407.46,388.14s-.14.23-.13.23c0,0-.2-.25-.2-.25l.33.03Z"/>
  <g>
    <path class="cls-1" d="M483.8,463.74v9.4c.4.06.81.15,1.23.18,13.69.98,27.39,1.92,41.07,2.96,3.42.26,6.81.86,10.21,1.27,1.49.18,2.55.99,2.87,2.39.44,1.92.75,3.9.86,5.86.03.54-.7,1.42-1.28,1.66-5.88,2.42-11.81,4.76-17.73,7.08-.49.19-1.09.21-1.62.17-23.72-1.88-47.46-1.47-71.21-.62-9.85.35-19.68.98-29.53,1.42-1.01.05-2.1-.16-3.04-.54-5.19-2.07-10.33-4.28-15.52-6.34-1.45-.57-2.07-1.37-2.05-2.95.05-5.14,1.78-7.52,7.08-8.33,6.67-1.01,13.39-1.77,20.11-2.35,7.77-.66,15.57-1.04,23.37-1.46,1.3-.07,1.72-.47,1.69-1.75-.08-2.64-.02-5.28-.02-8.07-.81-.04-1.51-.09-2.22-.1-36.65-.24-73.3-.48-109.95-.73-2.32-.02-2.68-.38-2.68-2.72,0-58.08,0-116.16,0-174.24,0-2.97.17-3.16,3.07-3.11,85.54,1.28,171.08.63,256.61.78.55,0,1.11,0,1.66,0,1.87.04,2.37.5,2.36,2.37-.02,6.15-.08,12.29-.12,18.44-.09,13.73-.26,27.46-.24,41.19.03,28.46.16,56.91.25,85.37.03,9.58.08,19.16.12,28.73,0,2.36-.34,2.74-2.64,2.76-31.83.32-63.66.63-95.5.95-5.31.05-10.63.13-15.94.2-.38,0-.76.07-1.28.12ZM338.83,286.54v172.86c7.7,1.34,252.77.83,256.78-.47,0-57.31,0-114.58,0-171.85-85.56-.18-171.13-.36-256.78-.54ZM450.2,476.9c-.42-.06-.63-.12-.85-.11-14.22.63-28.41,1.56-42.51,3.58-1.3.19-2.59.6-3.81,1.09-1.49.6-1.64,2.09-1.53,3.38.04.53,1,1.14,1.67,1.43,4.43,1.89,8.88,3.72,13.35,5.51.74.3,1.61.46,2.4.42,9.95-.45,19.9-1.05,29.86-1.41,23.41-.85,46.82-1.18,70.21.57.68.05,1.43-.11,2.08-.36,4.54-1.77,9.05-3.59,13.58-5.4,2.42-.97,2.4-1.08,1.8-3.63-.45-1.93-2.03-1.52-3.2-1.61-15.89-1.27-31.78-2.46-47.68-3.66-.63-.05-1.26,0-2,0,0,1.02,0,1.8,0,2.57,0,2.32-.21,2.56-2.55,3.08-5.87,1.32-11.82,1.97-17.81,1.54-3.62-.26-7.22-1.02-10.81-1.6-1.61-.26-2.41-1.19-2.22-2.91.09-.8.02-1.62.02-2.45ZM476.07,463.74c0,2.07,0,4.05,0,6.03,0,1.13-.53,1.84-1.67,1.84-1.07,0-1.53-.76-1.58-1.77-.03-.61-.02-1.22-.02-1.83,0-1.41,0-2.82,0-4.2h-12.96c0,2.06.01,3.99,0,5.92,0,1.08-.48,1.87-1.65,1.87-1.07,0-1.56-.69-1.61-1.73-.06-1.38-.13-2.76-.19-4.15q-.1-2.36-2.63-1.87c-.03.46-.1.94-.1,1.42-.06,4.04-.04,8.08-.2,12.12-.06,1.44.48,1.89,1.79,2.15,7.94,1.55,15.85,1.27,23.77-.22,1.08-.2,1.28-.7,1.28-1.68.01-4.04.1-8.08.16-12.12,0-.59,0-1.18,0-1.81h-4.38Z"/>
    <path class="cls-1" d="M455.42,274.29c-13.64.95-26.88,1.88-40.11,2.8-.39.03-.87.19-1.14.02-.59-.38-1.51-.96-1.48-1.41.04-.61.74-1.57,1.31-1.7,1.55-.36,3.17-.42,4.77-.5,16.67-.87,33.34-1.72,50.02-2.56,1.21-.06,2.43.02,3.65.06,1.1.04,1.82.59,1.77,1.74-.04,1.18-.84,1.55-1.93,1.55-5.75-.01-11.5,0-16.86,0Z"/>
    <path class="cls-1" d="M459.57,506.2c-11.81-.82-25.22-1.75-38.62-2.69-1.67-.12-2.68-1.18-1.99-2.2.41-.6,1.53-1.08,2.29-1.03,6.46.39,12.9,1.05,19.36,1.35,11.49.53,22.98.87,34.47,1.26,1.14.04,2.22.14,2.28,1.55.07,1.51-1.05,1.76-2.26,1.76-4.64,0-9.29,0-15.54,0Z"/>
    <path class="cls-1" d="M463.84,260.67c-7.04,0-14.62,0-22.2,0-.5,0-1.12.15-1.46-.09-.57-.4-1.31-1.06-1.3-1.61,0-.53.83-1.08,1.36-1.56.16-.14.53-.05.81-.04,15.21.2,30.42.4,45.63.61.44,0,.88.04,1.33.07,1.14.07,1.99.53,1.91,1.79-.09,1.27-1,1.54-2.14,1.5-7.8-.23-15.59-.44-23.93-.68Z"/>
    <path class="cls-1" d="M467.84,519.12c-7.3,0-14.6,0-21.9,0-1.16,0-2.21-.2-2.24-1.59-.03-1.51,1.09-1.71,2.3-1.72,12.61-.12,25.22-.24,37.83-.38,2.1-.02,4.2-.17,6.3-.26,1.1-.05,2.08.2,2.17,1.49.09,1.39-.89,1.77-2.06,1.81-7.46.22-14.92.43-22.39.65Z"/>
    <path class="cls-1" d="M498.52,270.98c4.31,0,8.62-.01,12.92.02.59,0,1.34.03,1.72.38.41.37.8,1.29.61,1.66-.29.56-1.08,1.18-1.68,1.2-2.37.07-4.75-.08-7.12-.14-6.46-.16-12.92-.32-19.39-.49-.39,0-.9.12-1.13-.08-.57-.48-1.41-1.13-1.38-1.68.03-.54.96-1.42,1.54-1.47,1.97-.15,3.97.02,5.96.03,2.65.02,5.3,0,7.95,0,0,.18,0,.37,0,.55Z"/>
    <path class="cls-1" d="M500.19,506.85c-4.09,0-8.18-.02-12.28,0-1.22,0-2.33-.15-2.34-1.65,0-1.39,1.05-1.63,2.21-1.66,8.29-.21,16.59-.42,24.88-.65,1.26-.04,2.33.23,2.35,1.66.01,1.35-1.04,1.65-2.22,1.65-4.2-.01-8.4,0-12.61,0,0,.22,0,.43,0,.65Z"/>
    <path class="cls-1" d="M466.9,291.48c39.8,0,79.61,0,119.41,0,.55,0,1.11-.01,1.66,0,1.79.06,2.23.48,2.22,2.32-.02,6.14-.07,12.29-.1,18.43-.09,16.38-.29,32.77-.25,49.15.06,28.84.26,57.68.4,86.52.01,3.13-.19,3.35-3.41,3.38-16.55.16-33.1.32-49.65.46-24.69.21-49.38.59-74.06.55-38.75-.07-77.5-.43-116.24-.68-3.11-.02-3.27-.21-3.27-3.31,0-51.48,0-102.97,0-154.45,0-2.94.18-3.14,3.07-3.11,40.08.32,80.15.65,120.23.98,0-.08,0-.16,0-.24ZM346.91,448.19c80.08,1.02,159.98,1.01,239.79-.33v-152.92c-79.95-.17-159.85-.35-239.79-.52v153.77Z"/>
    <path class="cls-1" d="M582.34,457.29c-1.16,0-2.32,0-3.48,0-1.09,0-1.88-.4-1.92-1.58-.03-1.06.65-1.67,1.66-1.69,2.54-.04,5.09-.09,7.63.09.55.04,1.36.98,1.46,1.61.16,1-.64,1.57-1.69,1.58-1.22.01-2.43,0-3.65,0,0,0,0-.01,0-.02Z"/>
    <path class="cls-1" d="M558.92,457.27c-.6,0-1.32.21-1.78-.05-.58-.33-1.31-1.04-1.3-1.58,0-.53.76-1.35,1.34-1.52.91-.26,1.96-.11,2.94-.1,1.08.02,1.85.52,1.83,1.66-.02,1.13-.79,1.61-1.88,1.62-.38,0-.77,0-1.15,0,0-.01,0-.02,0-.04Z"/>
    <path class="cls-1" d="M569.35,454.05c.5,0,1.12-.19,1.46.04.58.37,1.41,1.07,1.35,1.53-.08.61-.82,1.39-1.44,1.61-.79.28-1.82.28-2.61.02-.69-.23-1.58-.94-1.7-1.57-.21-1.08.68-1.64,1.78-1.66.39,0,.77,0,1.16,0,0,.01,0,.02,0,.03Z"/>
    <path class="cls-1" d="M515.9,489.85c-15.1-.57-30.2-1.58-45.29-1.59-16.26,0-32.52.89-48.78,1.5-2.58.1-5.02.04-7.45-.98-2.8-1.17-5.7-2.13-8.56-3.16-1.15-.41-2.38-.88-1.86-2.39.52-1.5,1.75-1.16,2.92-.73,2.91,1.08,5.85,2.04,8.73,3.2,1.8.72,3.57.93,5.5.8,18.95-1.32,37.92-2.13,56.91-1.5,12.28.41,24.54,1.17,36.82,1.74.91.04,1.88-.08,2.73-.39,3.91-1.4,7.78-2.88,11.66-4.36,1.11-.42,2.14-.51,2.64.77.51,1.3-.38,1.93-1.46,2.34-4.3,1.62-8.59,3.23-12.9,4.83-.5.19-1.06.22-1.6.32,0-.13,0-.26,0-.39Z"/>
    <path class="cls-1" d="M476.32,476.75c-.37.26-1.06,1.15-1.7,1.11-1.85-.12-1.61-1.79-1.74-3.05-.11-1.09.42-1.84,1.59-1.86,1.21-.02,1.9,1.21,1.84,3.8Z"/>
    <path class="cls-1" d="M456.29,476.43c-.05-1.26.09-2.42,1.59-2.45,1.47-.03,1.72,1.07,1.71,2.29-.01,1.18-.14,2.34-1.64,2.37-1.49.03-1.74-1.06-1.67-2.21Z"/>
    <path class="cls-1" d="M474.88,397.09c2.84,2.87,5.56,5.63,8.28,8.38,1.56,1.57,1.57,2.17.02,3.7-4.1,4.04-8.2,8.09-12.3,12.12-1.56,1.53-2.16,1.52-3.67-.09-2.45-2.63-4.89-5.27-7.43-8-5.24,3.21-10.71,5.62-17.14,5.72-.17,2.52-.33,4.99-.49,7.45-.08,1.22-.1,2.43-.19,3.65-.09,1.17-.71,1.79-1.93,1.84-5.7.22-11.4.45-17.09.69-1.49.06-2.11-.69-2.1-2.12.01-3.54-.02-7.09.02-10.63.01-.92-.23-1.37-1.19-1.6-4.74-1.14-9.43-2.43-13.6-5.14-.29-.19-1.13.1-1.47.42-2.63,2.53-5.2,5.14-7.79,7.71-1.63,1.62-2.26,1.63-3.81-.01-3.39-3.57-6.74-7.18-10.17-10.72-1.12-1.15-1.12-2.12-.11-3.31,2.07-2.45,4.06-4.97,6.12-7.43.6-.72.81-1.23.14-2.12-3.15-4.23-5.47-8.85-6.13-14.16-.13-1.02-.75-1.05-1.51-1.07-3.43-.06-6.86-.13-10.3-.22-2.42-.06-2.73-.39-2.84-2.83-.21-4.81-.43-9.62-.63-14.43-.1-2.42.24-2.75,2.71-2.86,3.59-.16,7.19-.29,10.78-.54.54-.04,1.4-.56,1.5-1,1.13-4.87,3.04-9.35,6.27-13.4-2.42-2.62-4.82-5.21-7.21-7.81-1.73-1.88-1.7-2.35.13-4.06,3.89-3.62,7.77-7.25,11.66-10.87,1.59-1.48,2.19-1.46,3.71.15,2.31,2.46,4.64,4.91,6.89,7.43.72.81,1.22.84,2.21.36,4.18-2.01,8.44-3.85,12.63-5.82.44-.21.86-.92.89-1.42.17-3.65.24-7.3.35-10.96.06-2,.48-2.43,2.47-2.44,6.15,0,12.29-.01,18.44,0,2.01,0,2.42.44,2.43,2.45,0,3.65.02,7.31-.01,10.96,0,.87.14,1.4,1.15,1.63,4.6,1.04,9.13,2.26,13.12,4.96.27.18,1.04-.05,1.38-.33,2.84-2.3,5.63-4.65,8.44-6.99,1.73-1.44,2.22-1.45,3.78.08,3.87,3.8,7.74,7.61,11.58,11.43,1.44,1.43,1.44,2.01.07,3.47-2.25,2.37-4.49,4.75-6.79,7.06-.65.65-.74,1.1-.35,1.98,1.69,3.78,3.22,7.63,4.89,11.42.19.42.95.83,1.46.84,3.43.07,6.86.03,10.3.04,2,0,2.43.43,2.48,2.43.13,5.48.24,10.96.33,16.44.04,2.22-.32,2.56-2.62,2.57-3.16,0-6.31.03-9.47-.02-.97-.01-1.45.23-1.7,1.29-1.18,5.01-3.23,9.64-6.59,13.72ZM385.74,408.71c3.12,3.29,6.11,6.44,9.45,9.97.47-.69.75-1.26,1.18-1.69,2.49-2.52,5.02-5,7.52-7.51.9-.9,1.72-1.15,2.89-.29,1.54,1.14,3.13,2.36,4.9,3.01,3.47,1.27,7.05,2.24,10.63,3.2,1.3.35,1.87.96,1.85,2.29-.04,3.21,0,6.42,0,9.63,0,.58,0,1.17,0,1.9,5-.21,9.74-.41,14.56-.61.23-3.73.44-7.26.66-10.79.12-1.93.55-2.28,2.43-2.29,1.49,0,3-.03,4.46-.27,4.51-.74,8.52-2.73,12.24-5.29,1.24-.85,2.2-.77,3.17.37.93,1.1,1.94,2.13,2.92,3.18,1.49,1.6,2.98,3.19,4.57,4.89,3.74-3.85,7.31-7.53,10.94-11.27-.29-.31-.66-.72-1.05-1.1-2.47-2.47-4.92-4.94-7.41-7.38-.9-.89-1.12-1.82-.23-2.75,4.1-4.27,6.13-9.53,7.26-15.21.26-1.31.92-1.89,2.26-1.88,3.04.04,6.09.01,9.13,0,.58,0,1.17-.05,1.63-.08v-14.78c-3.54,0-6.85,0-10.15,0-3.38,0-3.35,0-4.08-3.31-.24-1.07-.57-2.15-1.01-3.15-1.1-2.48-2.21-4.95-3.45-7.36-1.87-3.62-2.12-3.04.86-6.15,2.01-2.1,4.03-4.2,5.98-6.22-3.33-3.39-6.53-6.6-9.68-9.87-.81-.84-1.32-.37-1.94.15-2.84,2.38-5.71,4.73-8.54,7.13-1.12.95-2.04,1.03-3.17-.04-.87-.82-1.88-1.65-2.98-2.04-3.43-1.23-6.9-2.36-10.41-3.32-2.96-.8-2.99-.67-2.98-3.71,0-3.64,0-7.28,0-11h-16.73c-.03.69-.07,1.23-.09,1.78-.09,3.43-.21,6.86-.26,10.29-.02,1.46-.58,2.25-2.13,2.37-.98.08-2,.31-2.88.73-3.99,1.91-7.96,3.86-11.87,5.91-1.31.69-2.23.59-3.21-.49-2.11-2.34-4.3-4.62-6.41-6.96-.44-.48-.7-1.12-1.08-1.75-4,3.73-7.5,7-11.13,10.39,2.54,2.74,4.96,5.39,7.42,7.99,1.06,1.11,1.19,2.09.12,3.31-3.42,3.89-5.3,8.51-6.24,13.56-.42,2.29-.55,2.41-2.86,2.52-3.91.19-7.82.41-11.85.62,0,.76-.02,1.36,0,1.95.14,3.32.34,6.64.4,9.95.02,1.33.51,1.67,1.77,1.67,3.54.01,7.08.17,10.62.25,1.2.03,2.1.4,2.16,1.75.25,6.15,2.95,11.28,6.68,15.95,1.1,1.37.99,2.36-.09,3.62-2.27,2.64-4.43,5.38-6.76,8.22Z"/>
    <path class="cls-1" d="M517.72,350.13c.91-4.86,1.82-9.75,2.73-14.63.54-2.88,1.11-5.76,1.61-8.65.2-1.16.61-2.16,1.94-1.97,1.44.21,1.54,1.33,1.31,2.56-1.34,7.18-2.6,14.37-4.05,21.53-.37,1.82-.02,2.74,2.13,2.94,3.73-8.4,7.51-16.91,11.4-25.65-6.48-2.82-13.11-4.31-20.32-4.42,0,.97,0,1.77,0,2.58,0,1.1-.48,1.88-1.61,1.91-1.17.04-1.63-.8-1.68-1.86-.04-.76,0-1.53,0-2.66-2.42.28-4.66.44-6.86.81-7.14,1.18-13.7,3.9-19.86,7.65-.24.14-.47.3-.7.44-.94.55-1.85.57-2.45-.44-.59-.99-.22-1.89.75-2.38,4.2-2.09,8.28-4.53,12.67-6.11,25.4-9.13,58.26.42,71.25,32.89,1.98,4.94,3.65,9.98,4.26,15.31,1.4,12.3-2.26,23.27-9.32,33.09-3.34,4.64-7.44,8.74-11.33,12.97-4.23,4.59-10.02,6.39-15.76,8.07-4.61,1.35-9.29,2.74-14.03,3.25-13.83,1.5-27.07-.28-38.83-8.51-.23-.16-.59-.29-.64-.49-.18-.73-.59-1.72-.27-2.17.31-.44,1.44-.57,2.12-.43.7.15,1.28.85,1.96,1.21,3.1,1.66,6.22,3.29,9.59,5.07,3.23-9.35,6.31-18.26,9.23-26.71-2.96-2.48-5.67-4.71-8.32-7.01-.57-.5-1.2-1.14-1.38-1.83-.19-.71.14-1.56.25-2.35.79.15,1.79.04,2.32.5,1.5,1.29,2.67,2.96,4.19,4.22,5.55,4.59,11.92,4.92,18.69,3.58,7.2-1.42,11.55-6.06,14.24-12.41,3-7.07.64-13.42-3.69-19.08-6.32-8.27-17.96-10.12-27.04-4.54-1.5.92-2.91,2.02-4.29,3.12-.97.78-1.98,1.31-2.89.19-.9-1.12-.15-2.02.79-2.8,4.67-3.87,9.84-6.54,16.02-6.9.26-.02.52-.11.92-.2-.14-2.52-.28-5-.43-7.47-.2-3.26-.39-6.52-.61-9.78-.08-1.14.02-2.24,1.41-2.38,1.5-.15,1.81.97,1.88,2.17.34,5.47.69,10.94.99,16.41.06,1.1.4,1.66,1.71,1.38ZM508.76,396.46q-2.43-.77-3.19,1.38c-2.4,6.95-4.8,13.91-7.2,20.87-.44,1.29-.87,2.58-1.34,3.98,6.85,1.88,13.56,2.17,20.36,1.54.23-1.41-.51-3.17,1.46-3.41,2.08-.25,1.66,1.76,2.21,2.94,6.16-.89,12.02-2.63,17.78-4.8,3.27-1.23,6.25-2.9,8.63-5.42,3.41-3.62,7.01-7.13,9.93-11.12,9.11-12.45,12.56-26.05,7.48-41.18-3.69-10.99-9.28-20.69-18.48-27.99-2.62-2.08-5.52-3.8-8.33-5.72-.35.49-.51.66-.59.85-3.6,8.09-7.17,16.19-10.79,24.27-.39.86-.13,1.26.55,1.75,3.98,2.87,6.51,6.79,8.53,11.21,5.92,12.96-4.35,27.31-14.22,29.45-1.55.34-3.08.78-4.74,1.21.5,3.42.99,6.75,1.47,10.07.42,2.85.91,5.69,1.21,8.54.07.62-.37,1.46-.85,1.92-.27.26-1.29.15-1.6-.16-.46-.46-.73-1.22-.83-1.9-.83-5.3-1.57-10.62-2.41-15.92-.13-.8-.66-1.53-1-2.29-.32.77-.84,1.53-.93,2.33-.78,7.43-1.49,14.87-2.21,22.31-.11,1.11-.51,2.02-1.78,1.93-1.39-.1-1.61-1.1-1.49-2.29.23-2.2.42-4.41.63-6.61.57-5.89,1.15-11.78,1.73-17.75Z"/>
    <path class="cls-1" d="M353.69,353.13c.41,20.85.77,38.99,1.14,57.13,0,.33.04.66.03,1-.03,1.07-.47,1.88-1.64,1.89-1.18.01-1.62-.8-1.64-1.87-.11-4.31-.27-8.63-.3-12.94-.15-25.28-.34-50.56-.37-75.84,0-7.19.49-14.37.75-21.56.01-.28,0-.55.04-.83.11-1.03.66-1.67,1.72-1.63,1.08.04,1.58.74,1.55,1.77-.08,2.38-.25,4.75-.3,7.13-.36,16.15-.69,32.3-.98,45.76Z"/>
    <path class="cls-1" d="M580.36,358.19c-.25-17.65-.49-35.3-.74-52.95-.01-.72-.21-1.52.03-2.14.28-.7.88-1.64,1.49-1.77,1.05-.23,1.67.63,1.75,1.72.04.61.03,1.22.03,1.83.18,30.32.39,60.64.51,90.96.02,5.58-.32,11.17-.49,16.76,0,.28.07.64-.07.81-.5.62-1,1.55-1.64,1.67-1.1.21-1.66-.68-1.63-1.79.11-3.65.35-7.3.36-10.95.04-14.72.02-29.44.02-44.16h.37Z"/>
    <path class="cls-1" d="M512.84,383.99c-5.97.04-10.99-4.86-11-10.73,0-5.96,5.11-10.84,11.41-10.88,5.95-.04,11.16,5.11,11.15,11.11-.01,4.58-3.72,10.62-11.56,10.49ZM512.96,380.68c5.64.07,8.11-4.11,8.12-7.21.01-4.2-3.73-7.81-7.94-7.77-4.36.04-8,3.49-7.99,7.58.01,4.06,3.57,7.43,7.8,7.4Z"/>
    <path class="cls-1" d="M355.66,422.96c0,1.05.01,2.09,0,3.14-.01,1.08-.52,1.87-1.64,1.89-1.12.01-1.65-.75-1.65-1.85,0-2.09-.02-4.18.01-6.28.01-1.03.61-1.86,1.6-1.64.65.14,1.42.96,1.61,1.63.27.97.07,2.07.07,3.12h0Z"/>
    <path class="cls-1" d="M582.87,424.54c0,.77.21,1.63-.06,2.3-.26.64-1,1.48-1.54,1.49-.54,0-1.49-.85-1.57-1.42-.22-1.57-.22-3.21,0-4.78.08-.59.93-1.41,1.54-1.53,1-.2,1.58.6,1.63,1.63.04.77,0,1.55,0,2.32h0Z"/>
    <path class="cls-1" d="M431.12,406.46c-16.93.19-29.8-12.4-33.11-26.79-1.66-7.21-.9-14.62,2.56-21.36,1.3-2.54,3.29-4.86,5.38-6.84,5.02-4.78,10.76-8.49,17.56-10.32,16.63-4.49,33.19,3.6,40.4,19.49,5.69,12.54,3.43,23.61-5.01,34.14-6.25,7.8-14.69,10.33-23.97,11.43-1.26.15-2.54.17-3.81.26ZM400.49,372.83c.32,2.56.3,4.83.9,6.92,3.77,13.15,15.86,25.36,33.89,23.09,7.49-.94,14.61-2.7,19.94-8.88,7.66-8.88,11.02-18.41,6.5-29.96-5.98-15.29-20.69-23.51-36.28-19.91-6.66,1.54-12.11,5.24-17.19,9.64-3.26,2.82-5.46,6.27-6.38,10.43-.66,2.95-.96,5.99-1.38,8.68Z"/>
    <path class="cls-1" d="M475.08,369.85c-.61.49-1.24,1.4-1.81,1.36-.62-.05-1.51-.87-1.7-1.52-1.15-3.97-1.72-8.15-3.27-11.95-3.88-9.53-10.88-15.95-20.7-19.19-1.1-.36-2.08-.85-1.71-2.17.39-1.39,1.52-1.4,2.7-.99,12.42,4.24,20.43,12.78,24.34,25.2.91,2.89,1.39,5.91,2.15,9.26Z"/>
    <path class="cls-1" d="M415.92,409.32c-1.17-.36-2.04-.57-2.85-.89-13.87-5.45-21.68-15.82-24.46-30.24-.17-.87-.27-1.75-.41-2.62-.19-1.17-.21-2.36,1.28-2.58,1.63-.24,1.77,1.05,2.02,2.23.62,2.91,1.06,5.9,2.02,8.7,3.75,10.96,11.05,18.44,22.22,21.92,1.03.32,1.79.88,1.48,1.99-.17.6-.88,1.05-1.3,1.51Z"/>
    <path class="cls-1" d="M389.13,365.35c.09-.61.08-.84.16-1.05,1.55-4.31,3.07-8.65,4.72-12.92.36-.94,1.08-1.85,1.88-2.46.43-.33,1.55-.23,2.02.13.37.27.56,1.47.28,1.86-2.9,4.06-3.94,8.86-5.47,13.46-.16.47-.17,1.12-.5,1.38-.54.43-1.31.87-1.92.79-.5-.06-.89-.88-1.17-1.19Z"/>
    <path class="cls-1" d="M473.69,379.14c-.08.3-.17.79-.34,1.25-1.37,3.72-2.69,7.46-4.17,11.14-.42,1.04-1.16,2.04-2,2.79-.41.36-1.6.39-2.02.05-.42-.34-.68-1.59-.38-1.99,2.99-4.07,4.03-8.9,5.6-13.53.21-.61.72-1.29,1.27-1.55,1.03-.48,2.05.43,2.03,1.84Z"/>
    <path class="cls-1" d="M560.8,375.53c-.39,2.9-.76,5.8-1.17,8.7-.16,1.12-.76,1.93-2,1.7-1.25-.23-1.47-1.2-1.24-2.3,2.47-11.73-.7-22.33-6.52-32.39-1-1.72-2.17-3.34-3.32-4.96-.68-.96-1.11-1.92-.03-2.76,1.08-.85,1.97-.21,2.67.72,6.31,8.31,11.32,19.6,11.62,31.31Z"/>
    <path class="cls-1" d="M557.77,391.14c-.98,1.85-1.68,3.55-2.71,5.03-1,1.43-2.27,2.7-3.53,3.92-.77.75-1.76.75-2.48-.15-.67-.84-.44-1.7.36-2.33,2.3-1.8,3.64-4.24,4.86-6.82.27-.57,1.24-1.12,1.89-1.12.51,0,1.01.88,1.62,1.47Z"/>
    <path class="cls-1" d="M428.66,372.78c-.18,3.63-.26,7.45-.61,11.24-.29,3.15-1.13,4.06-4.26,4.18-3.45.13-6.93-.11-10.38-.37-1.75-.13-2.68-1.31-2.86-3.12-.82-8.13-.66-16.23.87-24.28.39-2.06,1.41-3.3,3.6-3.38,2.92-.1,5.85-.45,8.75-.27,3.01.19,3.71,1.03,4,4.06.37,3.9.59,7.83.88,11.94ZM425.32,372.82c-.25-3.86-.51-7.56-.72-11.26-.06-1.11-.59-1.63-1.66-1.59-2.32.08-4.63.2-6.95.28-1.03.04-1.46.61-1.56,1.56-.26,2.25-.69,4.5-.76,6.76-.13,4.81-.09,9.62-.08,14.44,0,.89.1,1.84,1.36,1.87,2.76.07,5.52.14,8.28.2,1.1.02,1.57-.55,1.61-1.63.14-3.59.32-7.18.48-10.63Z"/>
    <path class="cls-1" d="M445.37,356.36c1.57.27,3.41.4,5.12.95.77.25,1.65,1.24,1.81,2.04.44,2.15.65,4.38.68,6.58,0,.62-.8,1.63-1.42,1.8-1.08.29-1.68-.58-1.79-1.66-.15-1.54-.31-3.08-.38-4.63-.05-.97-.52-1.45-1.44-1.42-2.48.08-4.96.16-7.43.37-.41.04-.95.68-1.11,1.15-.29.82-.27,1.75-.51,2.6-.3,1.05.14,1.61.96,2.17,3.82,2.64,7.59,5.37,11.42,7.99,1.56,1.07,2.38,2.32,2.1,4.28-.31,2.24-.42,4.51-.7,6.75-.19,1.46-1.06,2.35-2.56,2.66-4.02.82-8.02.76-12.02-.14-1.72-.39-2.69-1.41-2.78-3.23-.08-1.55-.21-3.09-.32-4.63-.07-1.12.22-2.07,1.51-2.13,1.39-.07,1.74.91,1.79,2.08.06,1.22.03,2.45.26,3.64.09.49.72,1.23,1.15,1.25,2.81.17,5.62.19,8.44.25,1.01.02,1.52-.51,1.53-1.52,0-.05.01-.11.02-.16q.89-5.59-3.68-8.79c-3.04-2.12-6.07-4.25-9.15-6.31-1.15-.77-1.69-1.72-1.44-3.07.37-2.01.74-4.02,1.19-6.01.25-1.13,1.01-1.77,2.21-1.92,2.08-.26,4.16-.58,6.51-.92Z"/>
  </g>
</svg>